HIERARCHY
ROOT Hips
{
  OFFSET -102.467 93.6631 130.069
  CHANNELS 6 Xposition Yposition Zposition Zrotation Xrotation Yrotation
  JOINT LeftUpLeg
  {
    OFFSET 8.64259 1.95398 -2.38835
    CHANNELS 3 Zrotation Xrotation Yrotation
    JOINT LeftLeg
    {
      OFFSET 43.7702 0 0
      CHANNELS 3 Zrotation Xrotation Yrotation
      JOINT LeftFoot
      {
        OFFSET 40.6238 0 0
        CHANNELS 3 Zrotation Xrotation Yrotation
        JOINT LeftToeBase
        {
          OFFSET 12.7242 0 0
          CHANNELS 3 Zrotation Xrotation Yrotation
          End Site
          {
            OFFSET 0 0 0
          }
        }
      }
    }
  }
  JOINT RightUpLeg
  {
    OFFSET -8.2249 1.95398 -2.59336
    CHANNELS 3 Zrotation Xrotation Yrotation
    JOINT RightLeg
    {
      OFFSET 43.5653 0 0
      CHANNELS 3 Zrotation Xrotation Yrotation
      JOINT RightFoot
      {
        OFFSET 40.6238 0 0
        CHANNELS 3 Zrotation Xrotation Yrotation
        JOINT RightToeBase
        {
          OFFSET 12.7242 0 0
          CHANNELS 3 Zrotation Xrotation Yrotation
          End Site
          {
            OFFSET 0 0 0
          }
        }
      }
    }
  }
  JOINT Spine
  {
    OFFSET 0.165834 0.87714 6.61349
    CHANNELS 3 Zrotation Xrotation Yrotation
    JOINT Spine1
    {
      OFFSET 7.38963 1.71661e-005 0
      CHANNELS 3 Zrotation Xrotation Yrotation
      JOINT Spine2
      {
        OFFSET 11.9445 1.14441e-005 0
        CHANNELS 3 Zrotation Xrotation Yrotation
        JOINT Spine3
        {
          OFFSET 14.7254 4.19617e-005 0
          CHANNELS 3 Zrotation Xrotation Yrotation
          JOINT Spine4
          {
            OFFSET 10.9679 0 0
            CHANNELS 3 Zrotation Xrotation Yrotation
            JOINT RightShoulder
            {
              OFFSET 2.46616 -1.6653 3.69651
              CHANNELS 3 Zrotation Xrotation Yrotation
              JOINT RightArm
              {
                OFFSET 13.0012 0 0
                CHANNELS 3 Zrotation Xrotation Yrotation
                JOINT RightForeArm
                {
                  OFFSET 28.7848 1.52588e-005 0
                  CHANNELS 3 Zrotation Xrotation Yrotation
                  JOINT RightHand
                  {
                    OFFSET 26.5688 1.52588e-005 0
                    CHANNELS 3 Zrotation Xrotation Yrotation
                    End Site
                    {
                      OFFSET 0 0 0
                    }
                  }
                }
              }
            }
            JOINT LeftShoulder
            {
              OFFSET 2.38034 -1.29275 -3.7523
              CHANNELS 3 Zrotation Xrotation Yrotation
              JOINT LeftArm
              {
                OFFSET 16.3182 6.10351e-005 0
                CHANNELS 3 Zrotation Xrotation Yrotation
                JOINT LeftForeArm
                {
                  OFFSET 27.0901 0 0
                  CHANNELS 3 Zrotation Xrotation Yrotation
                  JOINT LeftHand
                  {
                    OFFSET 24.5451 1.52588e-005 0
                    CHANNELS 3 Zrotation Xrotation Yrotation
                    End Site
                    {
                      OFFSET 0 0 0
                    }
                  }
                }
              }
            }
            JOINT Neck
            {
              OFFSET 5.0226 -0.0266342 0
              CHANNELS 3 Zrotation Xrotation Yrotation
              JOINT Head
              {
                OFFSET 6.69363 2.86102e-005 0
                CHANNELS 3 Zrotation Xrotation Yrotation
                End Site
                {
                  OFFSET 0 0 0
                }
              }
            }
          }
        }
      }
    }
  }
}
MOTION
Frames:	15
Frame Time:	0.0416667
-143.618 92.7068 136.728 98.0778 49.5936 83.2955 179.561 16.9405 85.4405 -36.9623 22.0718 5.18675 62.8513 5.47513 14.5286 42.6596 -1.61709 0.0458734 170.711 13.4383 83.0497 -90.2046 -20.2201 -2.39559 44.8317 10.988 12.2974 47.3211 -2.04406 7.38138 0.215076 8.29265 -89.7897 10.2889 0.524758 0.374181 -1.38202 0.540717 0.350713 -23.9173 0.388039 0.514589 -3.90469 0.388039 0.514586 98.1353 -57.2324 -87.9329 26.4861 -11.3769 -4.50973 0.136321 -5.8602 -10.3004 -7.0775 -0.293495 -0.257256 -90.6233 -56.0706 78.8195 -16.4432 6.30841 -21.4494 -0.949705 23.8262 -4.51674 1.71687 -0.140437 -6.108 0.000455507 -1.01558 -2.56749 -15.3236 -1.34302 6.98875 
-139.006 93.8419 131.451 100.256 49.8974 84.3236 -178.686 9.70878 88.0691 -35.5173 24.2052 5.89706 65.2205 8.01013 16.2481 44.0263 -1.6523 0.676349 169.404 25.5182 88.5607 -100.289 -18.3946 -2.28241 48.7535 8.09433 9.96834 53.6941 -1.91984 10.5937 -0.00499006 8.13453 -90.0844 10.605 -0.0486929 -0.162939 -1.06599 -0.0558274 -0.160645 -23.6011 0.00250437 -0.170043 -3.58846 0.00253397 -0.170037 97.8538 -57.2275 -88.3353 27.7113 -9.32391 -2.56354 0.405021 -3.65581 -9.59443 -9.70847 -0.343783 -1.12339 -90.0058 -55.0294 79.4854 -15.6349 8.33536 -23.4059 2.43796 18.5486 -14.5458 5.11214 -0.28384 -7.21672 -3.04998 -0.0540729 -4.61184 -15.997 -0.361996 7.89652 
-134.697 94.4732 126.571 101.937 49.8577 84.5362 -176.882 2.83564 90.2406 -32.8393 26.2616 6.01234 66.3713 9.89692 17.3864 46.0883 -1.58523 2.03866 168.523 33.3672 91.4816 -92.084 -15.5881 -1.45275 56.1359 6.43418 14.2844 44.142 -0.019926 12.1707 -0.242212 8.07672 -90.2495 10.7191 -0.597285 -0.441196 -0.951738 -0.616108 -0.414491 -23.487 -0.437092 -0.600313 -3.47432 -0.437069 -0.600308 97.6647 -56.9491 -88.6262 28.4279 -7.19676 -0.9202 0.092342 -2.97297 -9.2275 -10.0552 -0.378488 -0.839111 -89.4529 -55.0693 80.2776 -13.1827 10.0893 -25.5851 5.5621 16.7039 -24.0722 5.11768 -0.386318 -8.88627 -2.87624 0.901945 -5.93811 -16.6274 0.544099 9.38048 
-130.413 94.9643 121.938 102.285 51.0411 85.6975 -174.7 -1.67926 93.5545 -30.7237 30.0194 6.116 66.1825 10.3472 17.2881 48.1601 -1.19575 4.56408 169.055 33.3304 92.2402 -65.337 -13.8155 1.75988 58.8797 5.91995 14.5148 47.575 -1.37684 9.438 -0.353639 8.03047 -90.4607 10.8085 -0.916809 -0.831012 -0.862389 -0.952478 -0.789866 -23.3968 -0.624696 -1.06812 -3.38412 -0.624692 -1.06812 97.9968 -57.7703 -88.0936 27.5443 -5.28282 -0.0680548 0.0948546 -1.32404 -8.50087 -10.4289 -0.410107 -0.631449 -89.4595 -55.808 80.4045 -10.7504 11.9067 -29.3708 9.9572 19.005 -31.7837 3.1445 -0.175015 -6.16301 -2.10164 0.765104 -6.13207 -16.2319 0.462523 9.75626 
-125.765 95.2208 117.174 101.094 53.4758 84.5632 -174.192 -6.12919 93.0173 -27.5927 31.1245 5.89683 64.5978 8.02316 13.6353 51.089 -1.4513 4.46957 174.185 26.6117 88.0829 -28.1832 -6.8361 2.09379 55.0346 7.28844 13.4858 31.7418 -0.37358 0.579334 -0.497892 7.87041 -90.2874 11.1316 -1.12449 -0.463806 -0.538911 -1.14381 -0.413865 -23.0764 -0.933105 -0.780331 -3.06375 -0.933107 -0.780341 98.3108 -57.5605 -87.6609 27.8329 -5.3053 1.34166 0.344166 -0.914562 -7.34939 -10.1942 -0.356292 -1.20337 -89.6622 -55.1885 80.0022 -11.5279 13.1741 -32.629 12.379 20.5084 -34.5285 1.44308 -0.190514 -7.65968 -1.54314 0.00930668 -6.36521 -16.6983 -0.206785 9.18962 
-120.392 94.8148 112.134 102.636 56.243 82.6317 -173.904 -10.1196 94.411 -28.837 32.1558 7.69536 64.5139 6.71031 8.95491 53.7792 -1.37703 5.44033 176.571 21.1317 86.7392 -12.4847 2.09986 0.489548 57.0494 8.65445 18.6443 25.6404 0.588179 -1.0517 -0.731767 7.87825 -90.2932 11.115 -1.59264 -0.429573 -0.55499 -1.60999 -0.359067 -23.0959 -1.38989 -0.888453 -3.08322 -1.38988 -0.888446 99.3989 -56.9948 -86.1386 28.7535 -4.27768 2.76405 -0.289482 -1.59616 -7.85178 -8.75218 -0.24996 -1.92543 -89.4712 -53.9569 80.0428 -13.0233 14.5987 -33.0233 9.86534 17.2818 -33.9303 -0.267667 -0.197175 -10.0396 -1.23223 -0.283649 -6.3618 -17.0821 -0.512578 9.18451 
-113.741 93.7794 106.502 103.784 57.2024 81.8567 -175.421 -11.441 96.2197 -35.3835 31.6883 9.63244 59.8727 1.72145 2.51638 60.6684 -2.36745 4.13297 176.255 20.8459 88.2191 -18.3503 -3.7402 1.16099 54.0872 8.93574 14.0964 22.7426 1.2728 -1.36245 -0.971721 7.85338 -90.5073 11.1602 -2.1697 -0.797968 -0.509093 -2.20269 -0.701665 -23.0533 -1.82957 -1.4133 -3.04068 -1.82954 -1.41329 100.207 -57.0647 -84.9786 27.9248 -3.71177 3.55064 -0.407271 -2.29989 -8.54237 -10.689 -0.471696 -0.0514358 -89.0271 -52.819 80.4706 -16.0957 15.9922 -29.3144 -0.861621 5.57556 -24.9482 -0.846229 -0.201181 -12.6634 -0.496576 0.402394 -4.86576 -18.2341 -0.161022 9.76872 
-107.082 92.8789 100.709 102.993 55.9698 84.4307 -178.405 -7.10274 98.1462 -45.4543 23.9558 9.00095 46.6752 -6.8477 -7.38479 58.1058 -5.80873 -6.14245 176.174 23.1064 91.1345 -30.8183 -8.99772 2.0879 56.3108 8.03227 10.131 25.6178 1.13796 3.02262 -0.976822 7.76468 -90.9031 11.3268 -2.36464 -1.56239 -0.342858 -2.4311 -1.45678 -22.8814 -1.78588 -2.20078 -2.86878 -1.78587 -2.20078 99.8844 -56.7881 -85.4502 27.3878 -2.7127 3.55242 -0.674553 -2.84496 -8.15474 -10.6809 -0.636791 1.8185 -88.9394 -53.458 80.7162 -20.4801 14.1802 -22.1633 -1.67126 8.59412 -16.5766 -3.99636 0.0374778 -12.7778 0.345551 1.30447 -4.10283 -18.7168 0.564258 10.2057 
-101.021 93.2676 95.3929 103.583 54.993 84.385 176.913 2.421 95.6348 -62.059 21.0978 8.04958 46.9367 -5.30966 -1.1579 55.8947 -0.226029 9.28633 175.739 20.4579 92.5886 -37.5433 -6.82318 2.27887 63.9107 6.20186 12.1021 21.4143 2.00218 2.91654 -0.716072 7.86155 -91.0745 11.1297 -1.92393 -1.94902 -0.541134 -2.00782 -1.86247 -23.07 -1.24944 -2.43693 -3.05738 -1.24943 -2.43693 99.8953 -56.3644 -85.4508 27.1207 -3.12776 1.48763 -0.350921 -2.06987 -8.20137 -11.9574 -0.728204 1.9886 -89.1491 -54.2803 80.5646 -24.0815 10.9033 -19.6998 -2.23858 22.4435 -4.65252 -0.278921 -0.175637 -9.04745 1.6601 0.808727 -4.40222 -18.616 0.309935 9.11771 
-95.0391 94.8043 90.181 103.535 51.9759 82.4316 178.201 11.8422 91.8447 -64.9353 12.9951 5.3004 54.0009 0.507084 3.84537 57.9387 0.0202462 10.6384 176.658 14.7823 92.2477 -37.3125 -8.10173 0.470055 67.166 4.95385 11.7455 24.1492 1.69224 5.0834 -0.219766 7.89082 -90.8507 11.0846 -0.83235 -1.61413 -0.587095 -0.902576 -1.57595 -23.1146 -0.308845 -1.7896 -3.10193 -0.30884 -1.7896 99.5395 -56.0991 -85.9767 26.5687 -4.78868 -0.578759 -0.111442 -2.15428 -11.534 -15.6498 -1.00523 2.29038 -89.543 -55.2169 80.1773 -25.4169 8.16803 -15.2762 -3.712 26.6032 0.180603 1.30016 -0.187796 -7.35977 0.0780463 0.107569 -4.69416 -18.3874 -0.273644 8.2403 
-89.5063 96.04 85.1235 102.635 49.83 81.3634 -179.597 17.5441 88.0948 -53.8012 10.6222 3.12879 57.1243 3.18985 5.84468 58.4346 0.666315 12.5811 176.608 8.71607 91.1183 -34.8885 -8.16286 -0.644015 70.2897 4.62135 13.4894 23.6308 1.94205 6.46417 0.0909476 7.78926 -90.6142 11.2932 -0.104975 -1.21253 -0.378295 -0.158233 -1.20674 -22.909 0.264277 -1.18803 -2.8964 0.264258 -1.18804 99.6144 -55.7086 -85.8852 25.8586 -6.8707 -1.53863 -0.842761 -2.46928 -19.0371 -18.1964 -1.19163 2.42933 -89.2544 -55.803 80.6925 -24.9676 6.87081 -8.61588 -3.96918 26.18 -0.00665203 -3.64019 -0.0578727 -7.31973 -0.952574 -0.298448 -4.72482 -18.1362 -0.670494 8.02795 
-84.5611 96.5126 80.2219 102.038 49.1195 81.5582 -177.822 17.6055 86.7105 -29.482 10.7139 0.770827 54.8862 1.57007 5.15634 59.8711 0.0900634 10.9464 175.881 2.49673 90.1049 -31.3328 -6.40815 -0.65048 73.7454 4.46112 16.5017 20.2702 2.63468 7.76365 0.203765 7.79791 -90.5975 11.2772 0.127345 -1.20241 -0.394297 0.0742892 -1.20685 -22.9256 0.482798 -1.10857 -2.91291 0.482806 -1.10857 99.4451 -55.3728 -86.1469 23.9691 -8.71682 -3.51852 -3.82596 -4.63144 -28.2891 -17.6458 -1.05083 1.73248 -89.256 -56.3328 80.7855 -24.9126 7.89287 -4.04999 -5.17985 32.6648 -0.00720171 -3.22089 -0.0690406 -7.29103 0.102831 -0.216429 -3.54108 -17.9192 -0.539469 6.75283 
-79.3818 96.2843 75.1185 100.862 47.7987 83.3147 -177.396 15.9707 86.9123 -6.76818 8.23333 -0.196419 55.5482 0.159298 3.48223 58.9642 -0.00762071 10.5113 175.484 -2.59328 91.2524 -29.0971 -7.40357 -0.492103 74.1589 3.81506 17.051 23.866 2.0194 7.7055 0.328703 7.74718 -90.6448 11.38 0.353316 -1.31944 -0.291587 0.294916 -1.33373 -22.8228 0.733505 -1.15229 -2.81018 0.733512 -1.1523 99.4564 -55.9636 -86.1033 20.1444 -12.0829 -6.63587 -6.61048 -4.84684 -36.0992 -14.2303 -0.67837 0.323155 -88.07 -55.9379 82.3841 -26.2366 6.82691 -0.978333 -4.4673 32.3191 -0.00699381 -5.07044 -0.035346 -6.76441 1.33119 -0.0622304 -3.69693 -18.9404 -0.418079 6.98963 
-73.9444 95.3759 69.7996 100.566 46.38 84.5375 -177.655 18.7882 87.9085 -6.76205 8.20066 0.113308 57.1689 -0.557849 3.66801 50.7253 0.124954 10.4469 175.645 -6.55792 91.5469 -30.0535 -9.31664 -0.948745 71.4374 4.17499 17.1507 32.8169 0.922358 9.50912 0.45963 7.67923 -90.6406 11.5165 0.614893 -1.33835 -0.155024 0.555398 -1.36412 -22.6873 0.988657 -1.09173 -2.67465 0.988668 -1.09173 99.7231 -56.2126 -85.706 18.6943 -12.918 -8.74466 -10.3191 -6.38072 -40.9672 -11.4002 -0.428564 -0.840168 -87.12 -56.2162 83.7658 -26.0401 5.01093 0.159723 -3.3209 28.3195 -0.00637573 -6.18464 -0.000508119 -7.04699 0.967026 0.0938574 -4.03701 -18.622 -0.27026 7.47984 
-67.6394 94.4915 63.6441 99.9371 45.9224 84.3684 -178.705 18.7621 86.8389 -12.2047 15.5838 0.63073 51.0765 -2.55741 8.05898 46.5474 -0.181834 8.50451 175.862 -9.37273 90.6452 -32.0329 -11.4324 -1.90472 64.1911 6.75823 18.9704 40.8318 1.18933 15.0703 0.564955 7.48443 -90.3027 11.9081 0.980872 -0.709095 0.23726 0.9487 -0.751595 -22.3003 1.14863 -0.381499 -2.28765 1.14864 -0.381509 100.206 -56.8968 -84.9849 20.5113 -12.8689 -6.63727 -10.2917 -5.39655 -42.9846 -12.603 -0.456591 -1.00352 -87.0866 -55.7343 83.7422 -24.6627 4.1211 -1.40884 -2.87367 27.2891 -0.00592963 -6.02735 0.0121545 -7.5878 2.09753 -0.396316 -4.31609 -20.8333 -0.516709 5.45432 
